<svg xmlns="http://www.w3.org/2000/svg" viewBox="0 0 400 260" width="400" height="260" font-family="Arial, Helvetica, sans-serif">
<rect width="400" height="260" rx="10" fill="#ffffff" stroke="#cbd5e1"/>
<polygon points="200,161.2 262.4,175.6 262.4,204.4 200,218.8 137.6,204.4 137.6,175.6" fill="#dbeafe" fill-opacity="0.35" stroke="none"/><line x1="200" y1="161.2" x2="262.4" y2="175.6" stroke="#0f172a" stroke-width="1.6" stroke-dasharray="6 5"/><line x1="137.6" y1="175.6" x2="200" y2="161.2" stroke="#0f172a" stroke-width="1.6" stroke-dasharray="6 5"/><line x1="200" y1="92" x2="200" y2="161.2" stroke="#0f172a" stroke-width="1.6" stroke-dasharray="6 5"/><line x1="200" y1="92" x2="262.4" y2="175.6" stroke="#0f172a" stroke-width="1.6" stroke-dasharray="6 5"/><line x1="200" y1="92" x2="262.4" y2="204.4" stroke="#0f172a" stroke-width="2.5"/><line x1="200" y1="92" x2="200" y2="218.8" stroke="#0f172a" stroke-width="2.5"/><line x1="200" y1="92" x2="137.6" y2="204.4" stroke="#0f172a" stroke-width="2.5"/><line x1="200" y1="92" x2="137.6" y2="175.6" stroke="#0f172a" stroke-width="1.6" stroke-dasharray="6 5"/><line x1="262.4" y1="175.6" x2="262.4" y2="204.4" stroke="#0f172a" stroke-width="2.5"/><line x1="262.4" y1="204.4" x2="200" y2="218.8" stroke="#0f172a" stroke-width="2.5"/><line x1="200" y1="218.8" x2="137.6" y2="204.4" stroke="#0f172a" stroke-width="2.5"/><line x1="137.6" y1="204.4" x2="137.6" y2="175.6" stroke="#0f172a" stroke-width="2.5"/><circle cx="200" cy="92" r="2.5" fill="#0f172a"/>
</svg>
